<svg class="{{ with .class }}{{ . }} {{ end }}" style="width: 25px; height: 24px;" version="1.1" id="Layer_1" xmlns="http://www.w3.org/2000/svg" xmlns:xlink="http://www.w3.org/1999/xlink" x="0px" y="0px"
	 viewBox="0 0 300 300" enable-background="new 0 0 300 300" xml:space="preserve">
<g>
	<path fill="#0F6A3A" d="M163.4,244.2l26.2,13.2V214l-26.2,13.1V244.2z"/>
	<path fill="#116C3B" d="M189.6,187.7V214l26.2-13.1L189.6,187.7z"/>
	<path fill="#18A650" d="M189.6,214l26.2-13.1v43.4l-26.2,13.1V214z"/>
	<path fill="#8FC045" d="M84.9,213.8l52.3,26.4v43.4l-52.3-26.4V213.8z"/>
	<path fill="#3CAF73" d="M137.3,240.3l26.2-13.1v43.4l-26.2,13.1V240.3z"/>
	<path fill="#18A650" d="M111.1,200.7l52.3,26.4l-26.2,13.1l-52.3-26.4L111.1,200.7z"/>
	<path fill="#0F6A3A" d="M111.1,116.3l39.3,19.7l13.1-6.6v97.7l-52.3-26.4V116.3z"/>
	<path fill="#8FC045" d="M163.4,129.5l26.2-13.1V214l-26.2,13.1V129.5z"/>
	<path fill="#8FC045" d="M98,44.4v65.4l52.3,26.2V70.9L98,44.4z"/>
	<path fill="#3CAF73" d="M150.3,70.9l52.3-26.4v65.4L150.3,136V70.9z"/>
	<path fill="#0C9648" d="M150.3,18L98,44.4l52.3,26.4l52.3-26.4L150.3,18z"/>
</g>
</svg>
