<svg xmlns="http://www.w3.org/2000/svg" viewBox="0 0 48 48" xml:space="preserve"><path d="M35 2H17a1 1 0 0 0-.707.293l-8 8A1 1 0 0 0 8 11v30c0 2.757 2.243 5 5 5h22c2.757 0 5-2.243 5-5V7c0-2.757-2.243-5-5-5zm-7 2h4v13.936l-1.13-1.547a1.001 1.001 0 0 0-.798-.41c-.285.019-.614.144-.805.394L28 18.037V4zm10 37c0 1.654-1.346 3-3 3H13c-1.654 0-3-1.346-3-3V11.414L17.414 4H26v17a1 1 0 0 0 1.796.606l2.25-2.955 2.146 2.939A1.002 1.002 0 0 0 34 21V4h1c1.654 0 3 1.346 3 3v34zM20 6v5c0 1.654-1.346 3-3 3h-5a1 1 0 0 1 0-2h5c.551 0 1-.449 1-1V6a1 1 0 0 1 2 0z" fill="#26303d" class="fill-000000"></path></svg>