<?xml version="1.0" encoding="UTF-8"?>
<svg xmlns="http://www.w3.org/2000/svg" xmlns:xlink="http://www.w3.org/1999/xlink" width="64px" height="64px" viewBox="0 0 64 64" version="1.1">
<g id="surface1">
<path style=" stroke:none;fill-rule:nonzero;fill:rgb(216,142,74);fill-opacity:1;" d="M 48 48 L 48 52 L 52.917969 52 C 50.65625 54.550781 47.410156 56.007812 44 56 C 37.375 55.992188 32.007812 50.625 32 44 L 28 44 C 27.988281 50.664062 32.109375 56.632812 38.347656 58.976562 C 44.582031 61.324219 51.621094 59.550781 56 54.53125 L 56 60 L 60 60 L 60 48 Z M 48 48 "/>
<path style=" stroke:none;fill-rule:nonzero;fill:rgb(216,142,74);fill-opacity:1;" d="M 44 28 C 39.402344 28.023438 35.035156 30.015625 32 33.46875 L 32 28 L 28 28 L 28 40 L 40 40 L 40 36 L 35.082031 36 C 37.34375 33.449219 40.589844 31.992188 44 32 C 50.625 32.007812 55.992188 37.375 56 44 L 60 44 C 59.988281 35.167969 52.832031 28.011719 44 28 Z M 44 28 "/>
<path style=" stroke:none;fill-rule:nonzero;fill:rgb(216,142,74);fill-opacity:1;" d="M 24 56 L 12 56 L 12 48 L 16 48 L 16 44 L 12 44 L 12 34 L 16 34 L 16 30 L 12 30 L 12 20 L 16 20 L 16 16 L 12 16 L 12 8 L 48 8 L 48 24 L 52 24 L 52 8 C 52 5.789062 50.210938 4 48 4 L 12 4 C 9.789062 4 8 5.789062 8 8 L 8 16 L 4 16 L 4 20 L 8 20 L 8 30 L 4 30 L 4 34 L 8 34 L 8 44 L 4 44 L 4 48 L 8 48 L 8 56 C 8 58.210938 9.789062 60 12 60 L 24 60 Z M 24 56 "/>
</g>
</svg>
