<?xml version="1.0" encoding="UTF-8"?>
<svg xmlns="http://www.w3.org/2000/svg" xmlns:xlink="http://www.w3.org/1999/xlink" width="64px" height="64px" viewBox="0 0 64 64" version="1.1">
<g id="surface1">
<path style=" stroke:none;fill-rule:nonzero;fill:rgb(216,142,74);fill-opacity:1;" d="M 32 5.332031 C 25.164062 5.351562 18.597656 7.996094 13.652344 12.71875 L 13.652344 8 C 13.652344 6.527344 12.460938 5.332031 10.988281 5.332031 C 9.515625 5.332031 8.320312 6.527344 8.320312 8 L 8.320312 20 C 8.320312 21.472656 9.515625 22.667969 10.988281 22.667969 L 22.988281 22.667969 C 24.460938 22.667969 25.652344 21.472656 25.652344 20 C 25.652344 18.527344 24.460938 17.332031 22.988281 17.332031 L 16.585938 17.332031 C 23.660156 9.941406 34.980469 8.613281 43.574219 14.164062 C 52.167969 19.714844 55.609375 30.582031 51.78125 40.066406 C 47.953125 49.554688 37.929688 54.988281 27.890625 53.015625 C 17.855469 51.046875 10.628906 42.230469 10.667969 32 C 10.667969 30.527344 9.472656 29.332031 8 29.332031 C 6.527344 29.332031 5.332031 30.527344 5.332031 32 C 5.332031 46.726562 17.273438 58.667969 32 58.667969 C 46.726562 58.667969 58.667969 46.726562 58.667969 32 C 58.667969 17.273438 46.726562 5.332031 32 5.332031 Z M 32 21.332031 C 30.527344 21.332031 29.332031 22.527344 29.332031 24 L 29.332031 32 C 29.332031 33.472656 30.527344 34.667969 32 34.667969 L 37.332031 34.667969 C 38.804688 34.667969 40 33.472656 40 32 C 40 30.527344 38.804688 29.332031 37.332031 29.332031 L 34.667969 29.332031 L 34.667969 24 C 34.667969 22.527344 33.472656 21.332031 32 21.332031 Z M 32 21.332031 "/>
</g>
</svg>
