<svg xmlns="http://www.w3.org/2000/svg" xmlns:xlink="http://www.w3.org/1999/xlink" width="128px" height="128px" viewBox="0 0 128 128" version="1.1">
<g id="surface1">
<path style=" stroke:none;fill-rule:nonzero;fill:rgb(216,142,74);fill-opacity:1;" d="M 93.332031 5.332031 L 45.332031 5.332031 C 44.625 5.332031 43.949219 5.613281 43.449219 6.113281 L 22.113281 27.449219 C 21.613281 27.949219 21.332031 28.625 21.332031 29.332031 L 21.332031 109.332031 C 21.332031 116.683594 27.316406 122.667969 34.667969 122.667969 L 93.332031 122.667969 C 100.683594 122.667969 106.667969 116.683594 106.667969 109.332031 L 106.667969 18.667969 C 106.667969 11.316406 100.683594 5.332031 93.332031 5.332031 Z M 101.332031 109.332031 C 101.332031 113.742188 97.742188 117.332031 93.332031 117.332031 L 34.667969 117.332031 C 30.257812 117.332031 26.667969 113.742188 26.667969 109.332031 L 26.667969 30.4375 L 46.4375 10.667969 L 93.332031 10.667969 C 97.742188 10.667969 101.332031 14.257812 101.332031 18.667969 Z M 45.332031 37.332031 L 32 37.332031 C 30.527344 37.332031 29.332031 36.140625 29.332031 34.667969 C 29.332031 33.195312 30.527344 32 32 32 L 45.332031 32 C 46.800781 32 48 30.804688 48 29.332031 L 48 16 C 48 14.527344 49.195312 13.332031 50.667969 13.332031 C 52.140625 13.332031 53.332031 14.527344 53.332031 16 L 53.332031 29.332031 C 53.332031 33.742188 49.742188 37.332031 45.332031 37.332031 Z M 64 45.332031 C 50.769531 45.332031 40 56.097656 40 69.332031 C 40 82.566406 50.769531 93.332031 64 93.332031 C 77.230469 93.332031 88 82.566406 88 69.332031 C 88 56.097656 77.230469 45.332031 64 45.332031 Z M 64 88 C 53.707031 88 45.332031 79.625 45.332031 69.332031 C 45.332031 59.039062 53.707031 50.667969 64 50.667969 C 74.292969 50.667969 82.667969 59.039062 82.667969 69.332031 C 82.667969 79.625 74.292969 88 64 88 Z M 73.886719 70.113281 C 74.925781 71.15625 74.925781 72.84375 73.886719 73.886719 L 65.886719 81.886719 C 65.386719 82.386719 64.707031 82.667969 64 82.667969 C 63.292969 82.667969 62.613281 82.386719 62.113281 81.886719 L 54.113281 73.886719 C 53.421875 73.214844 53.144531 72.222656 53.386719 71.292969 C 53.632812 70.359375 54.359375 69.632812 55.292969 69.386719 C 56.222656 69.144531 57.214844 69.421875 57.886719 70.113281 L 61.332031 73.5625 L 61.332031 58.667969 C 61.332031 57.195312 62.527344 56 64 56 C 65.472656 56 66.667969 57.195312 66.667969 58.667969 L 66.667969 73.5625 L 70.113281 70.113281 C 71.15625 69.074219 72.84375 69.074219 73.886719 70.113281 Z M 73.886719 70.113281 "/>
</g>
</svg>
