<svg xmlns="http://www.w3.org/2000/svg" viewBox="0 0 48 48" xml:space="preserve"><path d="M35 2H17a1 1 0 0 0-.707.293l-8 8A1 1 0 0 0 8 11v30c0 2.757 2.243 5 5 5h22c2.757 0 5-2.243 5-5V7c0-2.757-2.243-5-5-5zm3 39c0 1.654-1.346 3-3 3H13c-1.654 0-3-1.346-3-3V11.414L17.414 4H35c1.654 0 3 1.346 3 3v34zM17 14h-5a1 1 0 1 1 0-2h5c.551 0 1-.448 1-1V6a1 1 0 1 1 2 0v5c0 1.654-1.346 3-3 3zm7 3c-4.962 0-9 4.037-9 9s4.038 9 9 9 9-4.037 9-9-4.038-9-9-9zm0 16c-3.86 0-7-3.14-7-7s3.14-7 7-7 7 3.14 7 7-3.14 7-7 7zm3.707-6.707a1 1 0 0 1 0 1.414l-3 3a.997.997 0 0 1-1.414 0l-3-3a1 1 0 1 1 1.414-1.414L23 27.586V22a1 1 0 1 1 2 0v5.586l1.293-1.293a1 1 0 0 1 1.414 0z" fill="#d88e4a" class="fill-000000"></path></svg>